<svg width="1940" height="1228" xmlns="http://www.w3.org/2000/svg" xmlns:xlink="http://www.w3.org/1999/xlink" xml:space="preserve" overflow="hidden"><defs><clipPath id="clip0"><rect x="679" y="306" width="1940" height="1228"/></clipPath><clipPath id="clip1"><rect x="681" y="58" width="555" height="694"/></clipPath><clipPath id="clip2"><rect x="681" y="213" width="555" height="694"/></clipPath><clipPath id="clip3"><rect x="681" y="359" width="555" height="694"/></clipPath><clipPath id="clip4"><rect x="681" y="504" width="555" height="694"/></clipPath><clipPath id="clip5"><rect x="681" y="650" width="555" height="694"/></clipPath><clipPath id="clip6"><rect x="681" y="796" width="555" height="694"/></clipPath><clipPath id="clip7"><rect x="681" y="941" width="555" height="694"/></clipPath><clipPath id="clip8"><rect x="681" y="1087" width="555" height="694"/></clipPath></defs><g clip-path="url(#clip0)" transform="translate(-679 -306)"><path d="M682 322.667 1235.67 322.667 1235.67 487.667 682 487.667Z" fill="#A6A6A6" fill-rule="evenodd"/><path d="M1235.67 322.667 1648.17 322.667 1648.17 487.667 1235.67 487.667Z" fill="#2E75B6" fill-rule="evenodd"/><path d="M1648.17 322.667 2131.25 322.667 2131.25 487.667 1648.17 487.667Z" fill="#C55A11" fill-rule="evenodd"/><path d="M2131.25 322.667 2614.33 322.667 2614.33 487.667 2131.25 487.667Z" fill="#C00000" fill-rule="evenodd"/><path d="M682 487.667 1235.67 487.667 1235.67 633.188 682 633.188Z" fill="#D9D9D9" fill-rule="evenodd"/><path d="M1235.67 487.667 1648.17 487.667 1648.17 633.188 1235.67 633.188Z" fill="#B4C7E7" fill-rule="evenodd"/><path d="M1648.17 487.667 2131.25 487.667 2131.25 633.188 1648.17 633.188Z" fill="#F8CBAD" fill-rule="evenodd"/><path d="M2131.25 487.667 2614.33 487.667 2614.33 633.188 2131.25 633.188Z" fill="#F8AEAE" fill-rule="evenodd"/><path d="M682 633.188 1235.67 633.188 1235.67 778.708 682 778.708Z" fill="#D9D9D9" fill-rule="evenodd"/><path d="M1235.67 633.188 1648.17 633.188 1648.17 778.708 1235.67 778.708Z" fill="#B4C7E7" fill-rule="evenodd"/><path d="M1648.17 633.188 2131.25 633.188 2131.25 778.708 1648.17 778.708Z" fill="#F8CBAD" fill-rule="evenodd"/><path d="M2131.25 633.188 2614.33 633.188 2614.33 778.708 2131.25 778.708Z" fill="#F8AEAE" fill-rule="evenodd"/><path d="M682 778.708 1235.67 778.708 1235.67 924.229 682 924.229Z" fill="#D9D9D9" fill-rule="evenodd"/><path d="M1235.67 778.708 1648.17 778.708 1648.17 924.229 1235.67 924.229Z" fill="#B4C7E7" fill-rule="evenodd"/><path d="M1648.17 778.708 2131.25 778.708 2131.25 924.229 1648.17 924.229Z" fill="#F8CBAD" fill-rule="evenodd"/><path d="M2131.25 778.708 2614.33 778.708 2614.33 924.229 2131.25 924.229Z" fill="#F8AEAE" fill-rule="evenodd"/><path d="M682 924.229 1235.67 924.229 1235.67 1069.75 682 1069.75Z" fill="#D9D9D9" fill-rule="evenodd"/><path d="M1235.67 924.229 1648.17 924.229 1648.17 1069.75 1235.67 1069.75Z" fill="#B4C7E7" fill-rule="evenodd"/><path d="M1648.17 924.229 2131.25 924.229 2131.25 1069.75 1648.17 1069.75Z" fill="#F8CBAD" fill-rule="evenodd"/><path d="M2131.25 924.229 2614.33 924.229 2614.33 1069.75 2131.25 1069.75Z" fill="#F8AEAE" fill-rule="evenodd"/><path d="M682 1069.75 1235.67 1069.75 1235.67 1215.27 682 1215.27Z" fill="#D9D9D9" fill-rule="evenodd"/><path d="M1235.67 1069.75 1648.17 1069.75 1648.17 1215.27 1235.67 1215.27Z" fill="#B4C7E7" fill-rule="evenodd"/><path d="M1648.17 1069.75 2131.25 1069.75 2131.25 1215.27 1648.17 1215.27Z" fill="#F8CBAD" fill-rule="evenodd"/><path d="M2131.25 1069.75 2614.33 1069.75 2614.33 1215.27 2131.25 1215.27Z" fill="#F8AEAE" fill-rule="evenodd"/><path d="M682 1215.27 1235.67 1215.27 1235.67 1360.79 682 1360.79Z" fill="#D9D9D9" fill-rule="evenodd"/><path d="M1235.67 1215.27 1648.17 1215.27 1648.17 1360.79 1235.67 1360.79Z" fill="#B4C7E7" fill-rule="evenodd"/><path d="M1648.17 1215.27 2131.25 1215.27 2131.25 1360.79 1648.17 1360.79Z" fill="#F8CBAD" fill-rule="evenodd"/><path d="M2131.25 1215.27 2614.33 1215.27 2614.33 1360.79 2131.25 1360.79Z" fill="#F8AEAE" fill-rule="evenodd"/><path d="M682 1360.79 1235.67 1360.79 1235.67 1506.31 682 1506.31Z" fill="#D9D9D9" fill-rule="evenodd"/><path d="M1235.67 1360.79 1648.17 1360.79 1648.17 1506.31 1235.67 1506.31Z" fill="#B4C7E7" fill-rule="evenodd"/><path d="M1648.17 1360.79 2131.25 1360.79 2131.25 1506.31 1648.17 1506.31Z" fill="#F8CBAD" fill-rule="evenodd"/><path d="M2131.25 1360.79 2614.33 1360.79 2614.33 1506.31 2131.25 1506.31Z" fill="#F8AEAE" fill-rule="evenodd"/><path d="M1235.67 485.375 1235.67 1508.6" stroke="#0D0D0D" stroke-width="4.58333" stroke-linejoin="round" stroke-miterlimit="10" fill="none" fill-rule="evenodd"/><path d="M1648.17 485.375 1648.17 1508.6" stroke="#AFABAB" stroke-width="2.29167" stroke-linejoin="round" stroke-miterlimit="10" fill="none" fill-rule="evenodd"/><path d="M2131.25 485.375 2131.25 1508.6" stroke="#AFABAB" stroke-width="2.29167" stroke-linejoin="round" stroke-miterlimit="10" fill="none" fill-rule="evenodd"/><path d="M679.708 487.667 2616.62 487.667" stroke="#0D0D0D" stroke-width="4.58333" stroke-linejoin="round" stroke-miterlimit="10" fill="none" fill-rule="evenodd"/><path d="M1233.38 633.188 2616.62 633.188" stroke="#AFABAB" stroke-width="2.29167" stroke-linejoin="round" stroke-miterlimit="10" fill="none" fill-rule="evenodd"/><path d="M1233.38 778.708 2616.62 778.708" stroke="#AFABAB" stroke-width="2.29167" stroke-linejoin="round" stroke-miterlimit="10" fill="none" fill-rule="evenodd"/><path d="M1233.38 924.229 2616.62 924.229" stroke="#AFABAB" stroke-width="2.29167" stroke-linejoin="round" stroke-miterlimit="10" fill="none" fill-rule="evenodd"/><path d="M1233.38 1069.75 2616.62 1069.75" stroke="#AFABAB" stroke-width="2.29167" stroke-linejoin="round" stroke-miterlimit="10" fill="none" fill-rule="evenodd"/><path d="M1233.38 1215.27 2616.62 1215.27" stroke="#AFABAB" stroke-width="2.29167" stroke-linejoin="round" stroke-miterlimit="10" fill="none" fill-rule="evenodd"/><path d="M1233.38 1360.79 2616.62 1360.79" stroke="#AFABAB" stroke-width="2.29167" stroke-linejoin="round" stroke-miterlimit="10" fill="none" fill-rule="evenodd"/><path d="M682 320.375 682 1508.6" stroke="#0D0D0D" stroke-width="4.58333" stroke-linejoin="round" stroke-miterlimit="10" fill="none" fill-rule="evenodd"/><path d="M2614.33 320.375 2614.33 1508.6" stroke="#0D0D0D" stroke-width="4.58333" stroke-linejoin="round" stroke-miterlimit="10" fill="none" fill-rule="evenodd"/><path d="M679.708 322.667 2616.62 322.667" stroke="#0D0D0D" stroke-width="4.58333" stroke-linejoin="round" stroke-miterlimit="10" fill="none" fill-rule="evenodd"/><path d="M679.708 1506.31 2616.62 1506.31" stroke="#0D0D0D" stroke-width="4.58333" stroke-linejoin="round" stroke-miterlimit="10" fill="none" fill-rule="evenodd"/><text fill="#FFFFFF" font-family="Calibri,Calibri_MSFontService,sans-serif" font-weight="700" font-size="110" transform="matrix(1 0 0 1 2345 442)">6</text><text fill="#FFFFFF" font-family="Calibri,Calibri_MSFontService,sans-serif" font-weight="700" font-size="110" transform="matrix(1 0 0 1 1834.14 442)">40</text><text fill="#FFFFFF" font-family="Calibri,Calibri_MSFontService,sans-serif" font-weight="700" font-size="110" transform="matrix(1 0 0 1 1386.34 442)">74</text><g clip-path="url(#clip1)"><text fill="#262626" font-family="Calibri,Calibri_MSFontService,sans-serif" font-weight="700" font-size="83" transform="matrix(1 0 0 1 715 433)">Wahlergebnis</text></g><text fill="#262626" font-family="Calibri,Calibri_MSFontService,sans-serif" font-weight="400" font-size="83" transform="matrix(1 0 0 1 2351.88 589)">6</text><text fill="#262626" font-family="Calibri,Calibri_MSFontService,sans-serif" font-weight="400" font-size="83" transform="matrix(1 0 0 1 1847.89 589)">40</text><text fill="#262626" font-family="Calibri,Calibri_MSFontService,sans-serif" font-weight="400" font-size="83" transform="matrix(1 0 0 1 1400.09 589)">74</text><g clip-path="url(#clip2)"><text fill="#262626" font-family="Calibri,Calibri_MSFontService,sans-serif" font-weight="700" font-size="83" transform="matrix(1 0 0 1 715 588)">Teiler: 1</text></g><text fill="#262626" font-family="Calibri,Calibri_MSFontService,sans-serif" font-weight="400" font-size="83" transform="matrix(1 0 0 1 2351.88 735)">3</text><text fill="#262626" font-family="Calibri,Calibri_MSFontService,sans-serif" font-weight="400" font-size="83" transform="matrix(1 0 0 1 1847.89 735)">20</text><text fill="#262626" font-family="Calibri,Calibri_MSFontService,sans-serif" font-weight="400" font-size="83" transform="matrix(1 0 0 1 1400.09 735)">37</text><g clip-path="url(#clip3)"><text fill="#262626" font-family="Calibri,Calibri_MSFontService,sans-serif" font-weight="700" font-size="83" transform="matrix(1 0 0 1 715 733)">Teiler: 2</text></g><text fill="#262626" font-family="Calibri,Calibri_MSFontService,sans-serif" font-weight="400" font-size="83" transform="matrix(1 0 0 1 2351.88 880)">2</text><text fill="#262626" font-family="Calibri,Calibri_MSFontService,sans-serif" font-weight="400" font-size="83" transform="matrix(1 0 0 1 1795.75 880)">13.33</text><text fill="#262626" font-family="Calibri,Calibri_MSFontService,sans-serif" font-weight="400" font-size="83" transform="matrix(1 0 0 1 1347.96 880)">24.67</text><g clip-path="url(#clip4)"><text fill="#262626" font-family="Calibri,Calibri_MSFontService,sans-serif" font-weight="700" font-size="83" transform="matrix(1 0 0 1 715 879)">Teiler: 3</text></g><text fill="#262626" font-family="Calibri,Calibri_MSFontService,sans-serif" font-weight="400" font-size="83" transform="matrix(1 0 0 1 2320.66 1026)">1.5</text><text fill="#262626" font-family="Calibri,Calibri_MSFontService,sans-serif" font-weight="400" font-size="83" transform="matrix(1 0 0 1 1847.89 1026)">10</text><text fill="#262626" font-family="Calibri,Calibri_MSFontService,sans-serif" font-weight="400" font-size="83" transform="matrix(1 0 0 1 1368.87 1026)">18.5</text><g clip-path="url(#clip5)"><text fill="#262626" font-family="Calibri,Calibri_MSFontService,sans-serif" font-weight="700" font-size="83" transform="matrix(1 0 0 1 715 1024)">Teiler: 4</text></g><text fill="#262626" font-family="Calibri,Calibri_MSFontService,sans-serif" font-weight="400" font-size="83" transform="matrix(1 0 0 1 2320.66 1171)">1.2</text><text fill="#262626" font-family="Calibri,Calibri_MSFontService,sans-serif" font-weight="400" font-size="83" transform="matrix(1 0 0 1 1868.8 1171)">8</text><text fill="#262626" font-family="Calibri,Calibri_MSFontService,sans-serif" font-weight="400" font-size="83" transform="matrix(1 0 0 1 1368.87 1171)">14.8</text><g clip-path="url(#clip6)"><text fill="#262626" font-family="Calibri,Calibri_MSFontService,sans-serif" font-weight="700" font-size="83" transform="matrix(1 0 0 1 715 1170)">Teiler: 5</text></g><text fill="#262626" font-family="Calibri,Calibri_MSFontService,sans-serif" font-weight="400" font-size="83" transform="matrix(1 0 0 1 2351.88 1317)">1</text><text fill="#262626" font-family="Calibri,Calibri_MSFontService,sans-serif" font-weight="400" font-size="83" transform="matrix(1 0 0 1 1816.66 1317)">6.67</text><text fill="#262626" font-family="Calibri,Calibri_MSFontService,sans-serif" font-weight="400" font-size="83" transform="matrix(1 0 0 1 1347.96 1317)">12.33</text><g clip-path="url(#clip7)"><text fill="#262626" font-family="Calibri,Calibri_MSFontService,sans-serif" font-weight="700" font-size="83" transform="matrix(1 0 0 1 715 1316)">Teiler: 6</text></g><text fill="#262626" font-family="Calibri,Calibri_MSFontService,sans-serif" font-weight="400" font-size="83" transform="matrix(1 0 0 1 2299.74 1462)">0.86</text><text fill="#262626" font-family="Calibri,Calibri_MSFontService,sans-serif" font-weight="400" font-size="83" transform="matrix(1 0 0 1 1816.66 1462)">5.71</text><text fill="#262626" font-family="Calibri,Calibri_MSFontService,sans-serif" font-weight="400" font-size="83" transform="matrix(1 0 0 1 1347.96 1462)">10.57</text><g clip-path="url(#clip8)"><text fill="#262626" font-family="Calibri,Calibri_MSFontService,sans-serif" font-weight="700" font-size="83" transform="matrix(1 0 0 1 715 1461)">Teiler: 7</text></g></g></svg>