<svg width="1949" height="1228" xmlns="http://www.w3.org/2000/svg" xmlns:xlink="http://www.w3.org/1999/xlink" xml:space="preserve" overflow="hidden"><defs><clipPath id="clip0"><rect x="676" y="306" width="1949" height="1228"/></clipPath><clipPath id="clip1"><rect x="681" y="58" width="555" height="694"/></clipPath><clipPath id="clip2"><rect x="681" y="213" width="555" height="694"/></clipPath><clipPath id="clip3"><rect x="681" y="359" width="555" height="694"/></clipPath><clipPath id="clip4"><rect x="681" y="504" width="555" height="694"/></clipPath><clipPath id="clip5"><rect x="681" y="650" width="555" height="694"/></clipPath><clipPath id="clip6"><rect x="681" y="796" width="555" height="694"/></clipPath><clipPath id="clip7"><rect x="681" y="941" width="555" height="694"/></clipPath><clipPath id="clip8"><rect x="681" y="1087" width="555" height="694"/></clipPath></defs><g clip-path="url(#clip0)" transform="translate(-676 -306)"><path d="M682 322.667 1235.67 322.667 1235.67 487.667 682 487.667Z" fill="#F4B183" fill-rule="evenodd"/><path d="M1235.67 322.667 1648.17 322.667 1648.17 487.667 1235.67 487.667Z" fill="#F4B183" fill-rule="evenodd"/><path d="M1648.17 322.667 2131.25 322.667 2131.25 487.667 1648.17 487.667Z" fill="#F4B183" fill-rule="evenodd"/><path d="M2131.25 322.667 2614.33 322.667 2614.33 487.667 2131.25 487.667Z" fill="#F4B183" fill-rule="evenodd"/><path d="M682 487.667 1235.67 487.667 1235.67 633.188 682 633.188Z" fill="#F8CBAD" fill-rule="evenodd"/><path d="M1235.67 487.667 1648.17 487.667 1648.17 633.188 1235.67 633.188Z" fill="#F2F2F2" fill-rule="evenodd"/><path d="M1648.17 487.667 2131.25 487.667 2131.25 633.188 1648.17 633.188Z" fill="#F2F2F2" fill-rule="evenodd"/><path d="M2131.25 487.667 2614.33 487.667 2614.33 633.188 2131.25 633.188Z" fill="#F2F2F2" fill-rule="evenodd"/><path d="M682 633.188 1235.67 633.188 1235.67 778.708 682 778.708Z" fill="#F8CBAD" fill-rule="evenodd"/><path d="M1235.67 633.188 1648.17 633.188 1648.17 778.708 1235.67 778.708Z" fill="#F2F2F2" fill-rule="evenodd"/><path d="M1648.17 633.188 2131.25 633.188 2131.25 778.708 1648.17 778.708Z" fill="#F2F2F2" fill-rule="evenodd"/><path d="M2131.25 633.188 2614.33 633.188 2614.33 778.708 2131.25 778.708Z" fill="#F2F2F2" fill-rule="evenodd"/><path d="M682 778.708 1235.67 778.708 1235.67 924.229 682 924.229Z" fill="#F8CBAD" fill-rule="evenodd"/><path d="M1235.67 778.708 1648.17 778.708 1648.17 924.229 1235.67 924.229Z" fill="#F2F2F2" fill-rule="evenodd"/><path d="M1648.17 778.708 2131.25 778.708 2131.25 924.229 1648.17 924.229Z" fill="#F2F2F2" fill-rule="evenodd"/><path d="M2131.25 778.708 2614.33 778.708 2614.33 924.229 2131.25 924.229Z" fill="#F2F2F2" fill-rule="evenodd"/><path d="M682 924.229 1235.67 924.229 1235.67 1069.75 682 1069.75Z" fill="#F8CBAD" fill-rule="evenodd"/><path d="M1235.67 924.229 1648.17 924.229 1648.17 1069.75 1235.67 1069.75Z" fill="#F2F2F2" fill-rule="evenodd"/><path d="M1648.17 924.229 2131.25 924.229 2131.25 1069.75 1648.17 1069.75Z" fill="#F2F2F2" fill-rule="evenodd"/><path d="M2131.25 924.229 2614.33 924.229 2614.33 1069.75 2131.25 1069.75Z" fill="#F2F2F2" fill-rule="evenodd"/><path d="M682 1069.75 1235.67 1069.75 1235.67 1215.27 682 1215.27Z" fill="#F8CBAD" fill-rule="evenodd"/><path d="M1235.67 1069.75 1648.17 1069.75 1648.17 1215.27 1235.67 1215.27Z" fill="#F2F2F2" fill-rule="evenodd"/><path d="M1648.17 1069.75 2131.25 1069.75 2131.25 1215.27 1648.17 1215.27Z" fill="#F2F2F2" fill-rule="evenodd"/><path d="M2131.25 1069.75 2614.33 1069.75 2614.33 1215.27 2131.25 1215.27Z" fill="#F2F2F2" fill-rule="evenodd"/><path d="M682 1215.27 1235.67 1215.27 1235.67 1360.79 682 1360.79Z" fill="#F8CBAD" fill-rule="evenodd"/><path d="M1235.67 1215.27 1648.17 1215.27 1648.17 1360.79 1235.67 1360.79Z" fill="#F2F2F2" fill-rule="evenodd"/><path d="M1648.17 1215.27 2131.25 1215.27 2131.25 1360.79 1648.17 1360.79Z" fill="#F2F2F2" fill-rule="evenodd"/><path d="M2131.25 1215.27 2614.33 1215.27 2614.33 1360.79 2131.25 1360.79Z" fill="#F2F2F2" fill-rule="evenodd"/><path d="M682 1360.79 1235.67 1360.79 1235.67 1506.31 682 1506.31Z" fill="#F8CBAD" fill-rule="evenodd"/><path d="M1235.67 1360.79 1648.17 1360.79 1648.17 1506.31 1235.67 1506.31Z" fill="#F2F2F2" fill-rule="evenodd"/><path d="M1648.17 1360.79 2131.25 1360.79 2131.25 1506.31 1648.17 1506.31Z" fill="#F2F2F2" fill-rule="evenodd"/><path d="M2131.25 1360.79 2614.33 1360.79 2614.33 1506.31 2131.25 1506.31Z" fill="#F2F2F2" fill-rule="evenodd"/><path d="M1235.67 482.511 1235.67 1511.47" stroke="#C55A11" stroke-width="10.3125" stroke-linejoin="round" stroke-miterlimit="10" fill="none" fill-rule="evenodd"/><path d="M1648.17 482.511 1648.17 1511.47" stroke="#F4B183" stroke-width="2.29167" stroke-linejoin="round" stroke-miterlimit="10" fill="none" fill-rule="evenodd"/><path d="M2131.25 482.511 2131.25 1511.47" stroke="#F4B183" stroke-width="2.29167" stroke-linejoin="round" stroke-miterlimit="10" fill="none" fill-rule="evenodd"/><path d="M676.844 487.667 2619.49 487.667" stroke="#C55A11" stroke-width="10.3125" stroke-linejoin="round" stroke-miterlimit="10" fill="none" fill-rule="evenodd"/><path d="M1230.51 633.188 2619.49 633.188" stroke="#F4B183" stroke-width="2.29167" stroke-linejoin="round" stroke-miterlimit="10" fill="none" fill-rule="evenodd"/><path d="M1230.51 778.708 2619.49 778.708" stroke="#F4B183" stroke-width="2.29167" stroke-linejoin="round" stroke-miterlimit="10" fill="none" fill-rule="evenodd"/><path d="M1230.51 924.229 2619.49 924.229" stroke="#F4B183" stroke-width="2.29167" stroke-linejoin="round" stroke-miterlimit="10" fill="none" fill-rule="evenodd"/><path d="M1230.51 1069.75 2619.49 1069.75" stroke="#F4B183" stroke-width="2.29167" stroke-linejoin="round" stroke-miterlimit="10" fill="none" fill-rule="evenodd"/><path d="M1230.51 1215.27 2619.49 1215.27" stroke="#F4B183" stroke-width="2.29167" stroke-linejoin="round" stroke-miterlimit="10" fill="none" fill-rule="evenodd"/><path d="M1230.51 1360.79 2619.49 1360.79" stroke="#F4B183" stroke-width="2.29167" stroke-linejoin="round" stroke-miterlimit="10" fill="none" fill-rule="evenodd"/><path d="M682 317.511 682 1511.47" stroke="#C55A11" stroke-width="10.3125" stroke-linejoin="round" stroke-miterlimit="10" fill="none" fill-rule="evenodd"/><path d="M2614.33 317.511 2614.33 1511.47" stroke="#C55A11" stroke-width="10.3125" stroke-linejoin="round" stroke-miterlimit="10" fill="none" fill-rule="evenodd"/><path d="M676.844 322.667 2619.49 322.667" stroke="#C55A11" stroke-width="10.3125" stroke-linejoin="round" stroke-miterlimit="10" fill="none" fill-rule="evenodd"/><path d="M676.844 1506.31 2619.49 1506.31" stroke="#C55A11" stroke-width="10.3125" stroke-linejoin="round" stroke-miterlimit="10" fill="none" fill-rule="evenodd"/><text fill="#262626" font-family="Calibri,Calibri_MSFontService,sans-serif" font-weight="700" font-size="110" transform="matrix(1 0 0 1 2345 442)">6</text><text fill="#262626" font-family="Calibri,Calibri_MSFontService,sans-serif" font-weight="700" font-size="110" transform="matrix(1 0 0 1 1834.14 442)">40</text><text fill="#262626" font-family="Calibri,Calibri_MSFontService,sans-serif" font-weight="700" font-size="110" transform="matrix(1 0 0 1 1386.34 442)">74</text><g clip-path="url(#clip1)"><text fill="#262626" font-family="Calibri,Calibri_MSFontService,sans-serif" font-weight="700" font-size="83" transform="matrix(1 0 0 1 715 433)">Wahlergebnis</text></g><text fill="#843C0C" font-family="Calibri,Calibri_MSFontService,sans-serif" font-weight="400" font-size="83" transform="matrix(1 0 0 1 2351.88 589)">6</text><text fill="#843C0C" font-family="Calibri,Calibri_MSFontService,sans-serif" font-weight="400" font-size="83" transform="matrix(1 0 0 1 1847.89 589)">40</text><text fill="#843C0C" font-family="Calibri,Calibri_MSFontService,sans-serif" font-weight="400" font-size="83" transform="matrix(1 0 0 1 1400.09 589)">74</text><g clip-path="url(#clip2)"><text font-family="Calibri,Calibri_MSFontService,sans-serif" font-weight="400" font-size="83" transform="matrix(1 0 0 1 715 588)">Teiler</text></g><text font-family="Calibri,Calibri_MSFontService,sans-serif" font-weight="700" font-size="83" transform="matrix(1 0 0 1 896.729 588)">: </text><text font-family="Calibri,Calibri_MSFontService,sans-serif" font-weight="700" font-size="83" transform="matrix(1 0 0 1 938.552 588)">1</text><text fill="#843C0C" font-family="Calibri,Calibri_MSFontService,sans-serif" font-weight="400" font-size="83" transform="matrix(1 0 0 1 2351.88 735)">3</text><text fill="#843C0C" font-family="Calibri,Calibri_MSFontService,sans-serif" font-weight="400" font-size="83" transform="matrix(1 0 0 1 1847.89 735)">20</text><text fill="#843C0C" font-family="Calibri,Calibri_MSFontService,sans-serif" font-weight="400" font-size="83" transform="matrix(1 0 0 1 1400.09 735)">37</text><g clip-path="url(#clip3)"><text font-family="Calibri,Calibri_MSFontService,sans-serif" font-weight="400" font-size="83" transform="matrix(1 0 0 1 715 733)">Teiler</text></g><text font-family="Calibri,Calibri_MSFontService,sans-serif" font-weight="700" font-size="83" transform="matrix(1 0 0 1 896.729 733)">: </text><text font-family="Calibri,Calibri_MSFontService,sans-serif" font-weight="700" font-size="83" transform="matrix(1 0 0 1 938.552 733)">2</text><text fill="#843C0C" font-family="Calibri,Calibri_MSFontService,sans-serif" font-weight="400" font-size="83" transform="matrix(1 0 0 1 2351.88 880)">2</text><text fill="#843C0C" font-family="Calibri,Calibri_MSFontService,sans-serif" font-weight="400" font-size="83" transform="matrix(1 0 0 1 1795.75 880)">13.33</text><text fill="#843C0C" font-family="Calibri,Calibri_MSFontService,sans-serif" font-weight="400" font-size="83" transform="matrix(1 0 0 1 1347.96 880)">24.67</text><g clip-path="url(#clip4)"><text font-family="Calibri,Calibri_MSFontService,sans-serif" font-weight="400" font-size="83" transform="matrix(1 0 0 1 715 879)">Teiler</text></g><text font-family="Calibri,Calibri_MSFontService,sans-serif" font-weight="700" font-size="83" transform="matrix(1 0 0 1 896.729 879)">: </text><text font-family="Calibri,Calibri_MSFontService,sans-serif" font-weight="700" font-size="83" transform="matrix(1 0 0 1 938.552 879)">3</text><text fill="#843C0C" font-family="Calibri,Calibri_MSFontService,sans-serif" font-weight="400" font-size="83" transform="matrix(1 0 0 1 2320.66 1026)">1.5</text><text fill="#843C0C" font-family="Calibri,Calibri_MSFontService,sans-serif" font-weight="400" font-size="83" transform="matrix(1 0 0 1 1847.89 1026)">10</text><text fill="#843C0C" font-family="Calibri,Calibri_MSFontService,sans-serif" font-weight="400" font-size="83" transform="matrix(1 0 0 1 1368.87 1026)">18.5</text><g clip-path="url(#clip5)"><text font-family="Calibri,Calibri_MSFontService,sans-serif" font-weight="400" font-size="83" transform="matrix(1 0 0 1 715 1024)">Teiler</text></g><text font-family="Calibri,Calibri_MSFontService,sans-serif" font-weight="700" font-size="83" transform="matrix(1 0 0 1 896.729 1024)">: </text><text font-family="Calibri,Calibri_MSFontService,sans-serif" font-weight="700" font-size="83" transform="matrix(1 0 0 1 938.552 1024)">4</text><text fill="#843C0C" font-family="Calibri,Calibri_MSFontService,sans-serif" font-weight="400" font-size="83" transform="matrix(1 0 0 1 2320.66 1171)">1.2</text><text fill="#843C0C" font-family="Calibri,Calibri_MSFontService,sans-serif" font-weight="400" font-size="83" transform="matrix(1 0 0 1 1868.8 1171)">8</text><text fill="#843C0C" font-family="Calibri,Calibri_MSFontService,sans-serif" font-weight="400" font-size="83" transform="matrix(1 0 0 1 1368.87 1171)">14.8</text><g clip-path="url(#clip6)"><text font-family="Calibri,Calibri_MSFontService,sans-serif" font-weight="400" font-size="83" transform="matrix(1 0 0 1 715 1170)">Teiler</text></g><text font-family="Calibri,Calibri_MSFontService,sans-serif" font-weight="700" font-size="83" transform="matrix(1 0 0 1 896.729 1170)">: </text><text font-family="Calibri,Calibri_MSFontService,sans-serif" font-weight="700" font-size="83" transform="matrix(1 0 0 1 938.552 1170)">5</text><text fill="#843C0C" font-family="Calibri,Calibri_MSFontService,sans-serif" font-weight="400" font-size="83" transform="matrix(1 0 0 1 2351.88 1317)">1</text><text fill="#843C0C" font-family="Calibri,Calibri_MSFontService,sans-serif" font-weight="400" font-size="83" transform="matrix(1 0 0 1 1816.66 1317)">6.67</text><text fill="#843C0C" font-family="Calibri,Calibri_MSFontService,sans-serif" font-weight="400" font-size="83" transform="matrix(1 0 0 1 1347.96 1317)">12.33</text><g clip-path="url(#clip7)"><text font-family="Calibri,Calibri_MSFontService,sans-serif" font-weight="400" font-size="83" transform="matrix(1 0 0 1 715 1316)">Teiler</text></g><text font-family="Calibri,Calibri_MSFontService,sans-serif" font-weight="700" font-size="83" transform="matrix(1 0 0 1 896.729 1316)">: </text><text font-family="Calibri,Calibri_MSFontService,sans-serif" font-weight="700" font-size="83" transform="matrix(1 0 0 1 938.552 1316)">6</text><text fill="#843C0C" font-family="Calibri,Calibri_MSFontService,sans-serif" font-weight="400" font-size="83" transform="matrix(1 0 0 1 2299.74 1462)">0.86</text><text fill="#843C0C" font-family="Calibri,Calibri_MSFontService,sans-serif" font-weight="400" font-size="83" transform="matrix(1 0 0 1 1816.66 1462)">5.71</text><text fill="#843C0C" font-family="Calibri,Calibri_MSFontService,sans-serif" font-weight="400" font-size="83" transform="matrix(1 0 0 1 1347.96 1462)">10.57</text><g clip-path="url(#clip8)"><text font-family="Calibri,Calibri_MSFontService,sans-serif" font-weight="400" font-size="83" transform="matrix(1 0 0 1 715 1461)">Teiler</text></g><text font-family="Calibri,Calibri_MSFontService,sans-serif" font-weight="700" font-size="83" transform="matrix(1 0 0 1 896.729 1461)">: </text><text font-family="Calibri,Calibri_MSFontService,sans-serif" font-weight="700" font-size="83" transform="matrix(1 0 0 1 938.552 1461)">7</text></g></svg>